<svg width="130" height="36" viewBox="0 0 130 36" fill="none" xmlns="http://www.w3.org/2000/svg">
<path d="M100.491 1.10524C101.288 1.88875 102.074 2.31806 104.183 3.14451C105.955 3.84215 107.046 4.36807 107.707 4.86179C108.011 5.08718 108.493 5.76336 109.469 7.33038C112.007 11.4196 113.077 12.6217 114.168 12.611C114.535 12.6003 114.692 12.5037 115.038 12.0744L115.248 11.8168L114.933 12.0314C114.472 12.3534 114.304 12.3964 113.905 12.2783C113.108 12.0529 111.944 10.5288 109.731 6.77226C109.248 5.94582 108.64 5.05498 108.378 4.78665C107.728 4.11048 106.563 3.52016 104.34 2.73665C102.305 2.01754 101.34 1.56676 100.606 0.997907C99.8403 0.396858 99.7984 0.429057 100.491 1.10524Z" fill="#7B8BD9"/>
<path d="M100.092 3.04783C100.092 3.39129 101.844 4.44312 102.83 4.70072C102.966 4.74365 103.333 4.93684 103.648 5.1515C104.267 5.57009 104.413 5.57009 104.151 5.16223C103.857 4.71145 103.291 4.34653 102.2 3.91721C101.623 3.69181 100.931 3.39129 100.658 3.23029C100.113 2.91904 100.092 2.9083 100.092 3.04783Z" fill="#7B8BD9"/>
<path d="M129.376 3.50941C129.061 4.02459 128.138 4.91543 127.435 5.36622C126.869 5.73114 126.219 6.0102 123.88 6.9225C122.642 7.39475 122.265 7.75968 121.373 9.30523C120.964 10.0136 120.461 10.7864 120.251 11.0225C119.852 11.4733 119.223 11.8597 118.887 11.8597C118.667 11.8597 118.132 11.0547 117.608 9.91701C117.251 9.14423 117.23 8.89737 117.44 8.37146C117.629 7.90994 117.566 7.87774 117.346 8.31779C117.02 8.95104 117.136 9.60575 117.776 10.8722C118.279 11.8382 118.373 12.1387 118.426 12.7183C118.562 14.6717 117.65 16.3139 115.594 17.8058C114.849 18.3424 114.608 18.3746 114.776 17.9238C114.849 17.7199 114.839 17.6555 114.734 17.6555C114.503 17.6555 114.325 17.9668 114.335 18.3424C114.346 18.6644 114.272 18.761 113.465 19.405C112.059 20.5427 111.315 21.6482 110.675 23.5694C110.381 24.428 110.329 24.7393 110.329 25.6516C110.318 26.6068 110.35 26.8 110.601 27.3474C110.969 28.1416 111.871 29.0647 112.647 29.4296C113.507 29.8375 114.556 29.8911 115.195 29.5477C115.458 29.4081 115.772 29.1398 115.898 28.9359C116.202 28.4636 116.223 28.1416 115.919 28.5388C115.521 29.0647 114.933 29.2793 114.105 29.2257C113.328 29.172 112.626 28.9144 113.045 28.8393C113.591 28.7427 114 28.5495 114.377 28.1953C114.912 27.7016 115.091 27.3367 115.091 26.7249C115.091 25.5657 114.367 24.9861 113.517 25.4369C113.077 25.6731 113.129 25.7267 113.591 25.5335C113.937 25.3833 114.01 25.3833 114.325 25.5335C114.713 25.716 114.881 26.0594 114.881 26.6283C114.881 27.7767 113.475 28.7212 112.269 28.3885C109.93 27.7445 110.371 23.1723 113.045 20.4997C113.454 20.0812 114 19.5982 114.272 19.405C114.692 19.0937 114.765 19.0723 114.944 19.2118C115.122 19.3406 115.133 19.3942 115.017 19.6948C114.891 20.0275 114.902 20.0275 115.112 19.888C115.5 19.6196 115.552 19.4372 115.374 19.0723L115.216 18.7288L115.646 18.4068C115.888 18.2244 116.16 18.0956 116.244 18.1063C116.328 18.1278 116.444 18.3424 116.506 18.6C116.59 18.9542 116.643 19.0293 116.748 18.922C116.916 18.7503 116.916 18.1385 116.748 17.8702C116.632 17.6877 116.674 17.5911 117.178 17.0759C117.755 16.4749 117.922 16.4212 117.922 16.8183C117.922 17.1403 118.237 17.7521 118.478 17.8809C118.667 17.9882 118.678 17.9775 118.615 17.7521C118.573 17.6126 118.478 17.1081 118.394 16.6359C118.248 15.7987 118.248 15.7558 118.499 15.0259L118.751 14.2746L119.433 14.3068C119.852 14.339 120.335 14.2853 120.702 14.1673C121.09 14.0599 121.342 14.0277 121.415 14.0921C121.489 14.1565 121.782 14.2746 122.076 14.3605C122.779 14.5751 123.177 14.7898 123.639 15.2084C124.069 15.5948 124.195 15.5518 123.964 15.101C123.618 14.4249 122.768 13.899 122.002 13.899H121.562L122.181 13.3194C123.198 12.3749 123.985 10.7971 124.268 9.09057C124.551 7.44842 124.425 7.36255 124.006 8.90811C123.66 10.2068 122.852 11.8382 122.181 12.5788C121.363 13.4804 120.607 13.8668 119.275 14.0492L118.793 14.1243L118.803 13.0725L118.814 12.0207L119.192 11.9563C119.716 11.8704 120.471 11.3982 120.838 10.9259C121.006 10.7005 121.457 10.0351 121.824 9.43402C122.202 8.84371 122.684 8.21046 122.894 8.028C123.114 7.84554 123.817 7.49135 124.457 7.24449C126.544 6.42879 127.498 5.9136 128.275 5.16229C128.935 4.51831 129.764 3.33768 129.649 3.20889C129.617 3.17669 129.491 3.31622 129.376 3.50941Z" fill="#7B8BD9"/>
<path d="M111.839 5.52718C111.157 6.26776 111.367 7.80258 112.248 8.56462C113.045 9.25153 113.937 9.16567 115.248 8.27483C116.423 7.48059 116.538 7.42692 117.241 7.35179L117.87 7.2874L117.409 7.14787C116.79 6.9654 116.307 7.10493 115.195 7.79185C114.21 8.40363 113.549 8.59682 113.045 8.42509C112.647 8.28556 112.101 7.73818 111.944 7.29813C111.755 6.78294 111.797 5.99943 112.038 5.58085C112.301 5.11933 112.227 5.09786 111.839 5.52718Z" fill="#7B8BD9"/>
<path d="M129.25 6.02095C128.935 6.27854 128.358 6.68639 127.97 6.93325C126.953 7.54503 127.026 7.78116 128.096 7.36257C128.768 7.10498 129.281 6.70786 129.68 6.13901C130.225 5.37697 130.068 5.33403 129.25 6.02095Z" fill="#7B8BD9"/>
<path d="M107.277 6.78303C106.868 8.10319 107.193 10.3464 107.99 11.7524C108.514 12.6754 109.773 13.9097 110.622 14.3283C111.839 14.9401 113.014 14.8972 113.79 14.1995C114.283 13.7487 114.241 13.62 113.706 13.9741C113.318 14.2425 113.171 14.2747 112.427 14.2747C111.755 14.2747 111.472 14.221 111.105 14.0385C110.004 13.4804 108.64 12.0637 108.116 10.9367C107.602 9.82047 107.413 8.83304 107.444 7.44848C107.465 6.7401 107.476 6.17125 107.476 6.17125C107.465 6.17125 107.382 6.45031 107.277 6.78303Z" fill="#7B8BD9"/>
<path d="M100.784 6.37508C100.648 6.42875 100.858 6.51461 101.519 6.68634C102.074 6.82587 102.934 7.15859 103.637 7.51278C104.298 7.8455 104.854 8.09236 104.885 8.06016C105.106 7.8455 103.585 6.79367 102.63 6.49315C101.959 6.27849 101.151 6.22482 100.784 6.37508Z" fill="#7B8BD9"/>
<path d="M129.04 7.96358C128.631 8.17824 127.97 8.3929 127.383 8.50023C126.838 8.60756 126.429 8.73635 126.45 8.80075C126.512 8.98321 127.855 8.99395 128.411 8.80075C128.935 8.61829 129.837 7.89918 129.764 7.72745C129.743 7.66305 129.418 7.78112 129.04 7.96358Z" fill="#7B8BD9"/>
<path d="M101.613 9.05824L101.403 9.1441L101.613 9.2085C101.728 9.2407 102.011 9.3051 102.242 9.34803C102.473 9.39096 103.344 9.62709 104.172 9.88468C105.001 10.1423 105.724 10.3569 105.777 10.3569C106.05 10.3569 105.766 10.1101 105.053 9.73442C103.868 9.11191 102.274 8.80065 101.613 9.05824Z" fill="#7B8BD9"/>
<path d="M114.335 9.31598C113.591 9.67017 113.486 9.85263 113.979 9.9063C114.524 9.9707 115.196 9.51991 115.196 9.10132C115.196 8.91886 115.154 8.92959 114.335 9.31598Z" fill="#7B8BD9"/>
<path d="M115.248 10.0887C115.091 10.4751 114.986 10.8185 115.017 10.8614C115.258 11.0976 115.867 10.2497 115.772 9.82034C115.657 9.32663 115.542 9.38029 115.248 10.0887Z" fill="#7B8BD9"/>
<path d="M128.411 9.8741C127.981 10.0136 127.268 10.1961 126.827 10.3034C126.387 10.4 125.936 10.5503 125.831 10.6361C125.652 10.7864 125.726 10.7971 126.628 10.7542C127.792 10.7005 128.642 10.4108 129.093 9.92777C129.439 9.55211 129.439 9.55211 128.411 9.8741Z" fill="#7B8BD9"/>
<path d="M104.183 11.5269C103.648 11.6342 103.071 11.8703 102.767 12.1172L102.557 12.2782H102.767C102.882 12.2782 103.186 12.2353 103.448 12.1709C103.711 12.1065 104.602 12.0206 105.441 11.9777L106.962 11.9025L106.553 11.7201C106.071 11.4947 104.854 11.4088 104.183 11.5269Z" fill="#7B8BD9"/>
<path d="M124.457 11.8597C124.016 12.0421 124.205 12.1495 125.254 12.2783C125.82 12.3427 126.46 12.4393 126.68 12.4715C127.184 12.5573 127.11 12.3749 126.502 12.0636C126.03 11.8167 124.824 11.6987 124.457 11.8597Z" fill="#7B8BD9"/>
<path d="M123.272 13.1583C122.905 13.3086 123.125 13.4052 124.174 13.5555C124.646 13.6199 125.222 13.7486 125.464 13.8345C125.852 13.9633 125.904 13.9633 125.852 13.8238C125.82 13.7379 125.789 13.6413 125.789 13.6199C125.789 13.5877 125.537 13.4481 125.243 13.3086C124.646 13.0188 123.765 12.9544 123.272 13.1583Z" fill="#7B8BD9"/>
<path d="M106.039 13.6092C105.462 13.9097 104.707 14.4893 104.466 14.8327C104.277 15.0796 104.277 15.0796 104.571 14.9615C104.728 14.8971 105.294 14.6181 105.808 14.3283C106.333 14.0492 106.951 13.7594 107.203 13.6843C107.444 13.6199 107.623 13.5233 107.591 13.4696C107.465 13.2657 106.542 13.3516 106.039 13.6092Z" fill="#7B8BD9"/>
<path d="M107.874 14.7254C107.371 14.9078 106.406 15.7557 106.06 16.3246C105.934 16.5285 105.85 16.711 105.871 16.7324C105.945 16.7968 108.776 14.7039 108.724 14.618C108.661 14.5107 108.388 14.5429 107.874 14.7254Z" fill="#7B8BD9"/>
<path d="M113.36 15.4337C112.322 17.1295 111.986 17.6018 111.556 17.913C111.147 18.2028 111.115 18.2458 111.304 18.2779C111.682 18.3423 112.426 17.8057 112.878 17.1617C113.349 16.4855 113.759 15.4874 113.706 15.1439C113.675 14.9615 113.612 15.0151 113.36 15.4337Z" fill="#7B8BD9"/>
<path d="M120.44 15.0582C120.44 15.1011 120.796 15.4982 121.237 15.9383C121.96 16.6681 122.034 16.7111 121.971 16.4213C121.866 15.9812 121.447 15.3802 121.079 15.1548C120.765 14.9616 120.44 14.9079 120.44 15.0582Z" fill="#7B8BD9"/>
<path d="M110.109 15.3157C109.29 15.6162 107.434 17.2906 107.434 17.7306C107.434 17.8487 107.476 17.8702 107.57 17.795C109.06 16.5822 110.476 15.3694 110.476 15.2835C110.476 15.2299 110.465 15.1869 110.455 15.1977C110.434 15.1977 110.287 15.2513 110.109 15.3157Z" fill="#7B8BD9"/>
<path d="M111.367 16.11C110.969 16.4963 110.318 17.0652 109.909 17.3657C109.081 17.999 109.186 18.1814 110.098 17.7199C110.801 17.3657 111.577 16.6681 111.965 16.0563C112.51 15.1654 112.343 15.1869 111.367 16.11Z" fill="#7B8BD9"/>
<path d="M118.866 15.7987C118.866 16.3568 119.789 17.3335 120.324 17.3335C120.524 17.3335 120.44 17.194 119.8 16.4749C119.013 15.5948 118.866 15.4874 118.866 15.7987Z" fill="#7B8BD9"/>
<path d="M111.252 19.523C110.014 20.8217 109.007 22.1848 108.64 23.0757C107.675 25.4047 107.99 27.6586 109.731 30.8034C110.402 32.0162 110.864 33.1432 111 33.8838L111.094 34.4526L111.063 33.7013C111.01 32.7676 110.832 32.2202 110.035 30.5995C108.158 26.7785 108.137 24.4709 109.941 21.7448C110.297 21.2081 111.86 19.201 112.552 18.3746C112.636 18.278 112.668 18.1921 112.615 18.1921C112.563 18.1921 111.944 18.7932 111.252 19.523Z" fill="#7B8BD9"/>
<path d="M109.699 23.1186C109.102 24.3099 108.923 26.1345 109.259 27.5728C109.563 28.8607 109.951 29.4618 111.734 31.34C112.636 32.2846 113.517 33.272 113.685 33.5403C114.073 34.1199 114.356 34.839 114.356 35.2147C114.356 35.3649 114.398 35.4615 114.461 35.4186C114.587 35.3435 114.493 34.6458 114.283 34.0233C114.031 33.2935 113.507 32.5743 112.122 31.0717C110.56 29.3974 110.255 28.9788 109.867 27.9914C109.605 27.3044 109.584 27.1542 109.595 25.5979C109.595 24.1489 109.626 23.8484 109.825 23.301C109.951 22.9468 110.035 22.6463 110.014 22.6141C109.983 22.5927 109.846 22.818 109.699 23.1186Z" fill="#7B8BD9"/>
<path d="M119.632 27.1004C119.055 27.4546 118.741 28.3777 118.971 29.086C119.097 29.4939 119.506 29.8374 119.726 29.7515C119.821 29.7086 119.8 29.6871 119.684 29.6871C119.401 29.6764 119.076 29.1504 119.076 28.7211C119.076 28.324 119.391 27.6908 119.695 27.4546C120.031 27.2078 120.607 27.1756 121.09 27.401C122.212 27.9161 122.506 28.8285 121.919 30.0413C120.891 32.1879 118.101 32.7889 114.881 31.5439C113.832 31.1468 113.842 31.1039 115.007 31.1146C116.423 31.1253 116.884 30.8892 117.136 29.9984C117.209 29.7515 117.178 29.7622 116.842 30.1164C116.234 30.7497 115.374 30.8033 113.465 30.3203C112.773 30.1486 112.185 29.9984 112.164 29.9984C112.133 29.9984 112.227 30.1271 112.374 30.2774C112.836 30.7926 113.905 31.501 115.017 32.0269C116.244 32.6172 116.653 33.0143 116.937 33.9052C117.083 34.3345 117.125 34.3989 117.209 34.2486C117.335 34.0232 117.241 33.4114 117.02 32.9821L116.863 32.6816H117.954C119.171 32.6816 119.842 32.5206 120.786 32.0054C122.506 31.0824 123.219 28.6138 122.107 27.5405C121.426 26.875 120.303 26.6819 119.632 27.1004Z" fill="#7B8BD9"/>
<path d="M57.157 7.18212C56.302 8.03715 56.302 8.77818 57.157 9.80422C57.7555 10.5167 57.8981 10.5452 58.5821 10.2317C60.1211 9.54771 60.0641 7.26762 58.5251 6.7261C58.0121 6.52659 57.727 6.6406 57.157 7.18212Z" fill="#7B8BD9"/>
<path d="M0.24035 7.52399C-0.301171 8.06551 0.0978444 8.46452 1.18089 8.46452H2.32093V17.8699C2.32093 28.0733 2.23543 28.6148 0.838873 28.8998C0.297352 29.0138 0.0408422 29.2418 0.0408422 29.5838C0.0408422 30.0969 0.411357 30.1254 7.85015 30.1254H15.6309L15.802 28.1873C16.1155 24.9097 16.0585 23.5701 15.5739 23.5701C15.2889 23.5701 15.1464 23.8551 15.1464 24.5106C15.1464 25.9642 14.0349 27.9023 12.8663 28.4723C12.0683 28.8713 11.1278 28.9853 8.24916 28.9853H4.60102L4.62952 20.492C4.65802 10.0036 4.71502 9.37656 5.94057 8.60703C7.62214 7.55249 7.19462 7.32448 3.66048 7.32448C1.86491 7.32448 0.325853 7.40998 0.24035 7.52399Z" fill="#7B8BD9"/>
<path d="M44.5026 13.5664C42.764 13.9654 41.966 14.3929 40.5409 15.7325C37.0353 19.0101 36.6933 24.7958 39.8569 28.159C42.1085 30.5531 45.5856 31.2371 48.6637 29.869C50.5163 29.071 52.4544 27.1329 51.9699 26.6484C51.7134 26.3919 51.4284 26.5059 50.7158 27.2184C49.4903 28.3585 47.9797 28.9855 46.3552 28.9855C44.3031 28.9855 42.6785 27.8455 41.4815 25.5654C40.6549 24.0263 40.7119 19.0101 41.567 17.3855C42.7925 15.1055 44.9871 14.0794 47.2957 14.6779C49.0058 15.134 49.7183 15.932 49.2908 16.901C48.5782 18.4686 50.2883 19.7511 51.4284 18.4971C53.0244 16.7585 50.4023 13.8799 46.9252 13.5094C46.1556 13.4239 45.0441 13.4524 44.5026 13.5664Z" fill="#7B8BD9"/>
<path d="M68.073 13.5948C66.534 13.9938 65.6505 14.6778 64.9949 15.9034C64.2254 17.4425 64.2824 19.2095 65.1659 20.4921C65.85 21.5181 66.648 21.9741 70.6666 23.7412C72.6047 24.5677 73.8588 25.7933 73.8588 26.8193C73.8588 28.2729 72.0062 29.5554 69.8971 29.5554C68.016 29.5554 65.7075 27.6458 65.3369 25.7648C65.2229 25.2803 64.9949 24.8527 64.7954 24.7672C64.5104 24.6817 64.4534 25.3088 64.5104 27.4463C64.5959 29.8689 64.6529 30.268 65.1089 30.3535C65.4509 30.4105 65.5934 30.268 65.5934 29.8404C65.5934 29.3559 65.7075 29.2704 66.1065 29.4414C66.363 29.5554 67.332 29.8974 68.2156 30.2109C71.9777 31.4935 75.6828 29.6694 76.0534 26.3633C76.3384 23.9407 75.0843 22.5727 70.9232 20.8626C67.8735 19.58 66.7335 18.5825 66.7335 17.2429C66.7335 16.7299 66.933 16.0174 67.161 15.6754C68.0445 14.3928 70.7236 14.1648 72.3197 15.2194C73.0607 15.7039 74.1438 17.756 74.1438 18.668C74.1438 19.0385 74.3148 19.295 74.5713 19.295C74.9133 19.295 74.9988 18.782 74.9988 16.4449C74.9988 13.7943 74.9703 13.5948 74.4288 13.5948C74.0298 13.5948 73.8588 13.7943 73.8588 14.1933C73.8588 14.5068 73.7733 14.7348 73.6593 14.6778C71.4077 13.5093 69.7546 13.1958 68.073 13.5948Z" fill="#7B8BD9"/>
<path d="M85.4872 13.7088C81.6395 14.7633 79.1599 18.1834 79.1884 22.4586C79.2169 25.8502 80.6135 28.3583 83.2641 29.6979C86.3707 31.2654 89.5913 30.8094 92.1849 28.4153C93.1255 27.5603 93.553 26.9618 93.4105 26.7338C93.2395 26.4773 92.983 26.5628 92.4129 27.0758C90.5604 28.8144 87.7957 29.4414 85.7152 28.5863C81.896 26.9903 80.813 19.3235 83.9766 16.0744C85.6582 14.3643 88.5368 14.0223 90.2183 15.3333C90.8454 15.8463 90.9309 16.0459 90.7884 17.1004C90.5889 18.554 91.1019 19.181 92.2419 18.896C93.5815 18.554 93.553 16.3879 92.1564 15.1053C90.5889 13.6518 87.7957 13.0817 85.4872 13.7088Z" fill="#7B8BD9"/>
<path d="M102.303 13.7088C100.479 14.1933 98.8257 15.3904 97.7996 16.9579C96.6596 18.6965 96.2606 20.1501 96.2891 22.5727C96.2891 24.9667 97.0016 26.7338 98.5407 28.2729C102.417 32.149 108.545 31.0375 111.138 25.9928C112.107 24.1117 112.335 20.8626 111.651 18.8105C110.397 15.0484 106.036 12.6543 102.303 13.7088ZM106.635 15.3049C108.944 16.9294 109.913 23.0287 108.488 26.6483C107.176 29.8689 103.5 30.496 101.134 27.8739C99.9087 26.5343 99.5097 25.3088 99.3102 22.3731C98.9682 17.3569 101.106 14.1933 104.583 14.5923C105.267 14.6778 106.179 14.9914 106.635 15.3049Z" fill="#7B8BD9"/>
<path d="M21.4737 13.9369C21.2742 14.1364 20.3906 14.3644 19.4786 14.4499C18.2246 14.5639 17.8255 14.7064 17.7685 15.0769C17.683 15.5044 17.8825 15.5899 18.8231 15.5899H19.9631L20.0486 21.3472C20.1341 26.7054 20.1911 27.2184 20.7897 28.3299C22.2432 31.066 25.7488 31.4081 29.0835 29.128C30.3375 28.3014 30.537 28.2444 30.537 28.7005C30.537 29.983 30.7935 30.1255 32.9881 30.1255C34.8977 30.1255 35.0972 30.0685 35.0972 29.5555C35.0972 29.071 34.8977 28.9855 33.9287 28.9855H32.7601L32.8456 21.4612C32.9026 17.3285 32.8741 13.8514 32.7601 13.7374C32.6746 13.6234 32.1901 13.7659 31.7056 13.9939C31.2496 14.2504 30.2805 14.4499 29.5395 14.4499C28.4565 14.4499 28.2569 14.5354 28.2569 15.0199C28.2569 15.5044 28.4565 15.5899 29.397 15.5899H30.537V21.1192V26.6484L29.511 27.5604C27.8579 29.014 26.0339 29.3845 24.4093 28.6435C22.8702 27.9594 22.6992 27.1614 22.6137 20.0646C22.5282 13.4809 22.4142 12.9963 21.4737 13.9369Z" fill="#7B8BD9"/>
<path d="M58.1831 14.0222C57.7841 14.2502 56.872 14.4213 56.131 14.4498C54.9624 14.4498 54.7629 14.5353 54.7629 15.0198C54.7629 15.5043 54.9624 15.5898 55.903 15.5898H57.043V20.9195C57.043 27.5888 56.929 28.3583 55.8745 28.9568C54.2784 29.8404 54.8199 30.1254 58.1831 30.1254C61.1187 30.1254 61.3182 30.0969 61.3182 29.5553C61.3182 29.0993 61.1187 28.9853 60.4062 28.9853H59.4656V21.3755C59.4656 16.5588 59.3516 13.7657 59.1806 13.7087C59.0381 13.6517 58.5821 13.7942 58.1831 14.0222Z" fill="#7B8BD9"/>
</svg>
