<svg width="258" height="142" viewBox="0 0 258 142" fill="none" xmlns="http://www.w3.org/2000/svg">
<path d="M73.0442 2.17455C76.3656 5.36479 79.6432 7.11286 88.4273 10.4779C95.8129 13.3185 100.358 15.4599 103.111 17.4702C104.378 18.3879 106.389 21.1411 110.453 27.5216C121.029 44.172 125.486 49.0666 130.031 49.0229C131.561 48.9792 132.216 48.5859 133.659 46.8378L134.533 45.789L133.222 46.663C131.299 47.9741 130.6 48.1489 128.939 47.6681C125.618 46.7504 120.767 40.5447 111.546 25.2491C109.535 21.8841 107.001 18.2568 105.908 17.1643C103.198 14.4111 98.3476 12.0075 89.0828 8.81723C80.6046 5.88921 76.5841 4.05373 73.5249 1.73754C70.3347 -0.709766 70.1599 -0.57866 73.0442 2.17455Z" fill="#7B8BD9"/>
<path d="M71.3839 10.0845C71.3839 11.4829 78.6821 15.7657 82.7901 16.8146C83.3582 16.9894 84.8878 17.776 86.1988 18.65C88.7772 20.3544 89.3891 20.3544 88.2965 18.6937C87.0729 16.8583 84.713 15.3724 80.168 13.6243C77.7644 12.7066 74.8801 11.4829 73.7438 10.8274C71.4713 9.56007 71.3839 9.51636 71.3839 10.0845Z" fill="#7B8BD9"/>
<path d="M193.399 11.9638C192.088 14.0614 188.242 17.6887 185.314 19.5242C182.954 21.01 180.245 22.1463 170.499 25.8609C165.343 27.7838 163.769 29.2697 160.055 35.5627C158.35 38.447 156.253 41.5936 155.379 42.555C153.718 44.3905 151.096 45.9638 149.697 45.9638C148.78 45.9638 146.551 42.6861 144.366 38.0537C142.88 34.9072 142.792 33.9021 143.667 31.7607C144.453 29.8815 144.191 29.7504 143.273 31.5422C141.918 34.1206 142.399 36.7864 145.065 41.9432C147.163 45.8764 147.556 47.1 147.774 49.4599C148.343 57.4136 144.541 64.1 135.975 70.1746C132.872 72.3597 131.867 72.4908 132.566 70.6553C132.872 69.825 132.828 69.5627 132.391 69.5627C131.43 69.5627 130.687 70.8301 130.731 72.3597C130.774 73.6707 130.469 74.064 127.104 76.6861C121.247 81.3185 118.145 85.8198 115.479 93.6425C114.255 97.1386 114.037 98.4059 114.037 102.121C113.993 106.01 114.124 106.797 115.173 109.025C116.702 112.259 120.461 116.018 123.695 117.504C127.278 119.164 131.649 119.383 134.314 117.984C135.407 117.416 136.718 116.324 137.242 115.493C138.51 113.57 138.597 112.259 137.33 113.876C135.669 116.018 133.222 116.892 129.769 116.673C126.535 116.455 123.607 115.406 125.355 115.1C127.628 114.707 129.332 113.92 130.906 112.478C133.134 110.468 133.877 108.982 133.877 106.491C133.877 101.771 130.862 99.4111 127.322 101.247C125.487 102.208 125.705 102.427 127.628 101.64C129.07 101.028 129.376 101.028 130.687 101.64C132.304 102.383 133.003 103.781 133.003 106.097C133.003 110.774 127.147 114.619 122.122 113.265C112.376 110.642 114.211 92.0255 125.355 81.1437C127.06 79.4394 129.332 77.4728 130.469 76.6861C132.217 75.4188 132.523 75.3314 133.265 75.8995C134.008 76.4239 134.052 76.6424 133.571 77.8661C133.047 79.2209 133.091 79.2209 133.965 78.6527C135.582 77.5602 135.8 76.8173 135.057 75.3314L134.402 73.9329L136.193 72.6219C137.199 71.8789 138.335 71.3545 138.684 71.3982C139.034 71.4856 139.515 72.3597 139.777 73.4085C140.127 74.8507 140.345 75.1566 140.782 74.7196C141.481 74.0203 141.481 71.5293 140.782 70.4368C140.301 69.6939 140.476 69.3005 142.574 67.2028C144.978 64.7555 145.677 64.537 145.677 66.154C145.677 67.4651 146.988 69.9561 147.993 70.4805C148.78 70.9175 148.823 70.8738 148.561 69.9561C148.386 69.3879 147.993 67.334 147.643 65.4111C147.032 62.0023 147.032 61.8275 148.08 58.8558L149.129 55.7967L151.97 55.9278C153.718 56.0589 155.728 55.8404 157.258 55.3597C158.875 54.9226 159.924 54.7915 160.229 55.0537C160.535 55.316 161.759 55.7967 162.983 56.1463C165.911 57.0203 167.571 57.8944 169.494 59.5987C171.286 61.172 171.81 60.9972 170.849 59.1617C169.407 56.4085 165.867 54.2671 162.677 54.2671H160.841L163.42 51.9072C167.659 48.0614 170.936 41.6373 172.116 34.6887C173.296 28.0023 172.772 27.6527 171.024 33.9458C169.582 39.2337 166.217 45.8764 163.42 48.8918C160.011 52.5627 156.864 54.136 151.314 54.8789L149.304 55.1848L149.348 50.9021L149.391 46.6193L150.965 46.3571C153.15 46.0075 156.296 44.0846 157.826 42.1617C158.525 41.244 160.404 38.5345 161.934 36.0872C163.507 33.6836 165.517 31.1051 166.391 30.3622C167.309 29.6193 170.237 28.1771 172.903 27.172C181.6 23.8506 185.577 21.753 188.81 18.6938C191.564 16.0717 195.016 11.2645 194.535 10.7401C194.404 10.609 193.88 11.1771 193.399 11.9638Z" fill="#7B8BD9"/>
<path d="M120.33 20.1799C117.489 23.1953 118.363 29.4447 122.034 32.5475C125.355 35.3444 129.07 34.9948 134.533 31.3675C139.427 28.1336 139.908 27.9151 142.836 27.6092L145.458 27.347L143.535 26.7789C140.957 26.0359 138.947 26.6041 134.314 29.401C130.206 31.892 127.453 32.6786 125.355 31.9794C123.695 31.4113 121.422 29.1825 120.767 27.3907C119.98 25.293 120.155 22.1028 121.16 20.3984C122.253 18.5192 121.947 18.4318 120.33 20.1799Z" fill="#7B8BD9"/>
<path d="M192.875 22.1898C191.564 23.2387 189.16 24.8993 187.543 25.9045C183.304 28.3955 183.61 29.3569 188.068 27.6526C190.865 26.6037 193.006 24.9868 194.667 22.6706C196.939 19.5677 196.284 19.3929 192.875 22.1898Z" fill="#7B8BD9"/>
<path d="M101.32 25.293C99.6152 30.6683 100.97 39.802 104.291 45.5269C106.476 49.2853 111.721 54.311 115.26 56.0154C120.33 58.5064 125.224 58.3316 128.458 55.4909C130.512 53.6555 130.338 53.131 128.109 54.5732C126.492 55.6657 125.88 55.7969 122.777 55.7969C119.98 55.7969 118.8 55.5783 117.271 54.8354C112.682 52.5629 107.001 46.7943 104.816 42.2056C102.674 37.6606 101.888 33.64 102.019 28.0025C102.106 25.1182 102.15 22.802 102.15 22.802C102.106 22.802 101.757 23.9382 101.32 25.293Z" fill="#7B8BD9"/>
<path d="M74.2677 23.6321C73.6996 23.8506 74.5736 24.2002 77.3268 24.8994C79.643 25.4676 83.2266 26.8223 86.1546 28.2645C88.9078 29.6192 91.224 30.6244 91.3551 30.4933C92.2728 29.6192 85.9361 25.3364 81.9592 24.1128C79.1623 23.2388 75.7972 23.0202 74.2677 23.6321Z" fill="#7B8BD9"/>
<path d="M192.001 30.0998C190.297 30.9739 187.543 31.8479 185.096 32.2849C182.824 32.7219 181.119 33.2464 181.207 33.5086C181.469 34.2515 187.063 34.2952 189.379 33.5086C191.564 32.7656 195.322 29.8376 195.016 29.1384C194.929 28.8762 193.574 29.3569 192.001 30.0998Z" fill="#7B8BD9"/>
<path d="M77.7206 34.5575L76.8466 34.9072L77.7206 35.1694C78.2013 35.3005 79.3813 35.5627 80.3427 35.7375C81.3041 35.9123 84.9314 36.8737 88.3838 37.9226C91.8363 38.9714 94.8517 39.8455 95.0702 39.8455C96.2065 39.8455 95.0265 38.8403 92.0548 37.3108C87.1165 34.776 80.4738 33.5087 77.7206 34.5575Z" fill="#7B8BD9"/>
<path d="M130.73 35.6065C127.628 37.0487 127.191 37.7916 129.245 38.0101C131.517 38.2723 134.314 36.4369 134.314 34.7325C134.314 33.9896 134.139 34.0333 130.73 35.6065Z" fill="#7B8BD9"/>
<path d="M134.533 38.7527C133.877 40.326 133.44 41.7245 133.571 41.8993C134.576 42.8607 137.111 39.4083 136.718 37.6602C136.237 35.6499 135.756 35.8684 134.533 38.7527Z" fill="#7B8BD9"/>
<path d="M189.379 37.8789C187.587 38.447 184.615 39.1899 182.78 39.6269C180.945 40.0202 179.065 40.6321 178.628 40.9817C177.885 41.5935 178.191 41.6372 181.95 41.4624C186.801 41.2439 190.34 40.0639 192.22 38.0974C193.662 36.5678 193.662 36.5678 189.379 37.8789Z" fill="#7B8BD9"/>
<path d="M88.4273 44.6088C86.1986 45.0459 83.795 46.0073 82.5276 47.0124L81.6536 47.668H82.5276C83.0083 47.668 84.2757 47.4932 85.3682 47.231C86.4608 46.9687 90.1754 46.6191 93.6716 46.4443L100.008 46.1384L98.304 45.3955C96.2937 44.4777 91.2243 44.1281 88.4273 44.6088Z" fill="#7B8BD9"/>
<path d="M172.903 45.9639C171.067 46.7068 171.854 47.1438 176.224 47.6682C178.584 47.9304 181.25 48.3238 182.168 48.4549C184.265 48.8045 183.959 48.0616 181.425 46.7942C179.458 45.7891 174.432 45.3083 172.903 45.9639Z" fill="#7B8BD9"/>
<path d="M167.964 51.2516C166.435 51.8634 167.352 52.2567 171.723 52.8686C173.689 53.1308 176.093 53.6552 177.098 54.0048C178.715 54.5292 178.933 54.5292 178.715 53.9611C178.584 53.6115 178.453 53.2182 178.453 53.1308C178.453 52.9997 177.404 52.4315 176.18 51.8634C173.689 50.6835 170.018 50.4213 167.964 51.2516Z" fill="#7B8BD9"/>
<path d="M96.1621 53.0872C93.7585 54.3109 90.612 56.6708 89.6068 58.0692C88.8202 59.0744 88.8202 59.0744 90.0438 58.5937C90.6994 58.3314 93.0593 57.1952 95.2007 56.0152C97.3857 54.879 99.9642 53.6991 101.013 53.3931C102.018 53.1309 102.761 52.7376 102.63 52.5191C102.106 51.6888 98.2598 52.0384 96.1621 53.0872Z" fill="#7B8BD9"/>
<path d="M103.81 57.6319C101.712 58.3748 97.6919 61.8273 96.2497 64.1435C95.7253 64.9738 95.3757 65.7167 95.4631 65.8041C95.769 66.0663 107.568 57.5445 107.35 57.1949C107.088 56.7579 105.952 56.889 103.81 57.6319Z" fill="#7B8BD9"/>
<path d="M126.666 60.5163C122.34 67.4212 120.942 69.344 119.15 70.6114C117.445 71.7913 117.314 71.9662 118.101 72.0973C119.674 72.3595 122.777 70.1744 124.656 67.5523C126.623 64.7991 128.327 60.7348 128.109 59.3363C127.978 58.5934 127.715 58.8119 126.666 60.5163Z" fill="#7B8BD9"/>
<path d="M156.165 58.9868C156.165 59.1616 157.651 60.7786 159.487 62.5704C162.502 65.5421 162.808 65.7169 162.546 64.537C162.109 62.7452 160.361 60.2979 158.831 59.3801C157.52 58.5935 156.165 58.375 156.165 58.9868Z" fill="#7B8BD9"/>
<path d="M113.119 60.0359C109.71 61.2595 101.975 68.077 101.975 69.8688C101.975 70.3495 102.149 70.4369 102.543 70.131C108.748 65.1927 114.648 60.2544 114.648 59.9048C114.648 59.6863 114.604 59.5115 114.561 59.5552C114.473 59.5552 113.862 59.7737 113.119 60.0359Z" fill="#7B8BD9"/>
<path d="M118.363 63.27C116.702 64.8432 113.992 67.1594 112.288 68.3831C108.836 70.9615 109.273 71.7044 113.075 69.8252C116.003 68.3831 119.237 65.5424 120.854 63.0514C123.126 59.4242 122.427 59.5116 118.363 63.27Z" fill="#7B8BD9"/>
<path d="M149.61 62.0021C149.61 64.2746 153.456 68.2515 155.685 68.2515C156.515 68.2515 156.166 67.6833 153.5 64.7553C150.222 61.1718 149.61 60.7348 149.61 62.0021Z" fill="#7B8BD9"/>
<path d="M117.883 77.1668C112.726 82.4547 108.531 88.0049 107.001 91.6321C102.981 101.115 104.292 110.293 111.546 123.097C114.343 128.036 116.266 132.624 116.834 135.64L117.227 137.956L117.096 134.897C116.878 131.095 116.135 128.866 112.814 122.267C104.991 106.709 104.903 97.3134 112.42 86.2131C113.906 84.028 120.418 75.8558 123.302 72.4907C123.652 72.0974 123.783 71.7478 123.564 71.7478C123.346 71.7478 120.767 74.1951 117.883 77.1668Z" fill="#7B8BD9"/>
<path d="M111.415 91.807C108.924 96.6579 108.181 104.087 109.579 109.943C110.847 115.188 112.464 117.635 119.893 125.283C123.651 129.128 127.322 133.149 128.021 134.241C129.638 136.601 130.818 139.529 130.818 141.059C130.818 141.671 130.993 142.064 131.255 141.889C131.78 141.583 131.386 138.743 130.512 136.208C129.464 133.236 127.278 130.308 121.51 124.19C114.998 117.373 113.731 115.668 112.114 111.648C111.021 108.851 110.934 108.239 110.978 101.902C110.978 96.0024 111.109 94.7788 111.939 92.55C112.464 91.1078 112.813 89.8842 112.726 89.7531C112.595 89.6656 112.026 90.5834 111.415 91.807Z" fill="#7B8BD9"/>
<path d="M152.8 108.02C150.396 109.462 149.085 113.221 150.047 116.105C150.571 117.766 152.275 119.164 153.193 118.815C153.586 118.64 153.499 118.552 153.018 118.552C151.838 118.509 150.484 116.367 150.484 114.619C150.484 113.002 151.795 110.424 153.062 109.462C154.46 108.457 156.864 108.326 158.874 109.244C163.55 111.341 164.774 115.056 162.327 119.994C158.044 128.735 146.419 131.182 133.003 126.113C128.633 124.496 128.676 124.321 133.527 124.365C139.427 124.408 141.35 123.447 142.399 119.82C142.705 118.815 142.573 118.858 141.175 120.3C138.64 122.879 135.057 123.097 127.103 121.131C124.219 120.431 121.771 119.82 121.684 119.82C121.553 119.82 121.946 120.344 122.558 120.956C124.481 123.054 128.939 125.938 133.571 128.079C138.684 130.483 140.388 132.1 141.568 135.727C142.18 137.475 142.355 137.737 142.705 137.126C143.229 136.208 142.836 133.717 141.918 131.969L141.262 130.745H145.807C150.877 130.745 153.674 130.09 157.607 127.992C164.774 124.234 167.746 114.182 163.113 109.812C160.273 107.102 155.597 106.316 152.8 108.02Z" fill="#7B8BD9"/>
<path d="M130.117 69.3081L130.135 69.29L130.154 69.2723C130.8 68.6587 131.547 68.0152 132.453 67.7028C133.504 67.3406 134.453 67.5127 135.278 67.8291C140.522 69.703 140.467 77.1452 135.535 79.3491C135.519 79.3566 135.502 79.3642 135.485 79.372C134.835 79.6706 133.716 80.1852 132.491 79.8287C131.867 79.6473 131.392 79.2973 131.034 78.9736C130.684 78.6561 130.339 78.2627 130 77.8592L130 77.8592L129.995 77.8532C128.93 76.576 128.1 75.1388 128.1 73.5045C128.1 71.8129 128.983 70.4425 130.117 69.3081Z" fill="#7B8BD9" stroke="#121212" stroke-width="4"/>
<path d="M16.2727 117.371L16.3296 100.427L16.3296 100.426C16.3615 88.6606 16.4119 82.6016 16.7788 79.2467C16.962 77.5709 17.204 76.8173 17.4141 76.4271C17.5715 76.1348 17.7528 75.9511 18.3174 75.5965L16.2727 117.371ZM16.2727 117.371H22.4058C28.9276 117.371 30.5287 117.08 31.8134 116.437L31.8222 116.433L31.831 116.429C32.6339 116.037 33.6523 115.016 34.4954 113.549C35.3258 112.105 35.7953 110.557 35.7953 109.387C35.7953 108.582 35.8715 107.696 36.2203 106.946C36.4096 106.539 36.7129 106.099 37.1941 105.766C37.6907 105.422 38.2393 105.288 38.7492 105.288C40.2436 105.288 40.9727 106.437 41.2477 107.146C41.5215 107.852 41.6268 108.72 41.669 109.601C41.756 111.419 41.5989 114.12 41.2495 117.773C41.2493 117.776 41.2491 117.778 41.2488 117.781L40.8686 122.09L40.7077 123.915H38.8764H21.5155C13.2605 123.915 8.81039 123.9 6.44016 123.735C5.34347 123.659 4.33327 123.538 3.59156 123.17C3.13149 122.942 2.66013 122.568 2.36623 121.973C2.10161 121.438 2.09113 120.932 2.09113 120.706C2.09113 119.747 2.48481 118.876 3.22002 118.24C3.87601 117.672 4.69447 117.384 5.4597 117.223L5.4597 117.223L5.47181 117.221C5.82311 117.149 5.9869 117.096 6.07867 117.054C6.13236 117.03 6.14067 117.019 6.15181 117.006C6.15252 117.005 6.15324 117.004 6.15398 117.003C6.23804 116.9 6.50138 116.458 6.71176 114.905C7.12589 111.848 7.17855 106.034 7.17855 94.5698V75.5842H6.63484C5.91982 75.5842 5.23714 75.5195 4.62688 75.3651C4.04695 75.2183 3.35625 74.9464 2.81205 74.4022C2.18325 73.7734 1.86963 72.8874 2.05055 71.9458C2.20254 71.1549 2.66197 70.538 3.09423 70.0994L16.2727 117.371Z" fill="#7B8BD9" stroke="#121212" stroke-width="4"/>
<path d="M102.848 83.018L102.866 83.0139L102.884 83.0102C104.358 82.6998 107.06 82.6459 108.918 82.8518C113.245 83.3141 117.111 85.3323 119.452 87.9171C120.624 89.2109 121.509 90.7553 121.751 92.4216C122.004 94.1589 121.531 95.893 120.226 97.3174C118.277 99.4587 115.532 99.584 113.616 98.1505C111.759 96.7611 110.996 94.1528 112.153 91.5929C112.262 91.3432 112.253 91.2138 112.246 91.1661C112.239 91.1203 112.212 91.0111 112.053 90.8331C111.682 90.419 110.779 89.8517 109.019 89.3816C104.857 88.3057 100.856 90.0739 98.512 94.4271C98.1921 95.0387 97.8682 96.1532 97.6279 97.6948C97.3939 99.1962 97.2623 100.945 97.2433 102.707C97.2242 104.47 97.3182 106.205 97.52 107.678C97.7293 109.206 98.0299 110.259 98.317 110.794L98.3214 110.802L98.3258 110.81C100.755 115.438 103.794 117.371 107.429 117.371C110.502 117.371 113.385 116.196 115.772 113.987C116.538 113.223 117.324 112.511 118.127 112.154C118.593 111.947 119.2 111.795 119.881 111.926C120.559 112.057 121.048 112.419 121.371 112.742C122.045 113.416 122.175 114.263 122.11 114.904C122.049 115.5 121.821 116.031 121.599 116.44C121.147 117.272 120.424 118.129 119.627 118.913C118.019 120.494 115.708 122.171 113.382 123.175C105.759 126.558 97.0914 124.871 91.4734 118.897C83.5949 110.522 84.5275 96.3476 93.0886 88.3412C94.7281 86.8002 96.1117 85.6826 97.6568 84.8406C99.2113 83.9936 100.824 83.4825 102.848 83.018Z" fill="#7B8BD9" stroke="#121212" stroke-width="4"/>
<path d="M155.385 83.0948L155.405 83.0896L155.425 83.0848C159.215 82.1855 162.861 82.7319 167.174 84.6568C167.29 84.4315 167.44 84.2108 167.632 84.0038C168.359 83.2217 169.315 83.0308 170.068 83.0308H170.073C170.396 83.0308 171.24 83.0308 171.989 83.6025C172.762 84.192 173.009 85.0438 173.119 85.6075C173.334 86.7014 173.34 88.5516 173.34 91.3901C173.34 93.9622 173.296 95.7109 173.126 96.8268C173.045 97.3562 172.901 98.026 172.524 98.5944C172.311 98.9146 172.006 99.2324 171.583 99.457C171.16 99.6813 170.738 99.7494 170.386 99.7494C169.341 99.7494 168.521 99.1939 168.038 98.4816C167.588 97.817 167.432 97.0436 167.432 96.3503C167.432 96.1706 167.364 95.7496 167.138 95.0932C166.924 94.4742 166.615 93.7722 166.249 93.0798C165.883 92.387 165.48 91.7412 165.095 91.2266C164.683 90.6764 164.388 90.4086 164.267 90.3296L164.259 90.3243C162.931 89.4462 161.019 89.0412 159.185 89.2013C157.303 89.3655 156.022 90.0639 155.509 90.7932C155.42 90.9326 155.256 91.2873 155.112 91.8091C154.971 92.3248 154.898 92.8249 154.898 93.1707C154.898 93.9606 155.178 94.7473 156.33 95.7449C157.566 96.8157 159.657 97.988 163.014 99.4003C167.686 101.321 171.058 103.171 173.154 105.426C175.402 107.844 176.052 110.575 175.68 113.749C175.18 118.192 172.424 121.602 168.668 123.447C164.932 125.283 160.213 125.585 155.559 123.998L155.548 123.994L155.536 123.99C155.375 123.933 155.212 123.875 155.047 123.817C154.029 123.456 152.953 123.075 152.103 122.763C151.983 123.064 151.806 123.366 151.545 123.639C150.679 124.544 149.552 124.498 148.944 124.396L148.924 124.393L148.904 124.389C148.345 124.284 147.655 124.022 147.109 123.349C146.642 122.774 146.446 122.09 146.333 121.525C146.112 120.406 146.032 118.637 145.939 116.007L145.939 115.999L145.938 115.99C145.875 113.63 145.869 111.956 145.98 110.882C146.03 110.401 146.126 109.735 146.44 109.171C146.617 108.852 146.948 108.412 147.527 108.147C148.137 107.868 148.727 107.917 149.148 108.044L149.257 108.076L149.361 108.121C149.867 108.338 150.218 108.684 150.432 108.933C150.664 109.203 150.855 109.502 151.009 109.788C151.318 110.361 151.567 111.039 151.729 111.727L151.737 111.762L151.744 111.798C152.041 113.304 153.191 115.045 154.882 116.449C156.576 117.854 158.476 118.643 159.957 118.643C161.924 118.643 163.733 118.04 165.004 117.161C166.309 116.259 166.796 115.271 166.796 114.538C166.796 114.183 166.541 113.415 165.465 112.374C164.44 111.382 162.883 110.36 160.889 109.51L160.879 109.505L160.869 109.501C156.412 107.541 153.61 106.253 151.733 105.149C149.757 103.987 148.694 102.964 147.744 101.542C145.31 97.9979 145.238 93.2717 147.23 89.2874L147.242 89.2628L147.255 89.2385C148.095 87.6678 149.129 86.3604 150.508 85.3189C151.878 84.2842 153.489 83.5862 155.385 83.0948ZM171.437 96.419C171.437 96.4189 171.436 96.4161 171.435 96.4107C171.436 96.4163 171.437 96.419 171.437 96.419Z" fill="#7B8BD9" stroke="#121212" stroke-width="4"/>
<path d="M194.214 83.356L194.218 83.3548C199.923 81.8053 206.897 83.1483 210.98 86.9311C212.925 88.7193 213.965 91.1543 214.008 93.3785C214.05 95.5791 213.032 98.1013 210.309 98.7966L210.309 98.7966L210.299 98.799C208.686 99.2023 206.778 99.1214 205.519 97.5707C204.423 96.2213 204.349 94.3315 204.589 92.5822C204.666 92.0139 204.7 91.6435 204.703 91.3792C204.706 91.1599 204.686 91.0764 204.682 91.0622C204.654 91.0206 204.527 90.8638 204.051 90.4731C202.679 89.4124 200.704 88.9413 198.571 89.1946C196.441 89.4476 194.331 90.4079 192.802 91.9617C189.866 94.9802 188.711 100.344 189.45 105.628C190.196 110.962 192.718 115.251 196.017 116.633C199.82 118.192 205.171 117.083 208.827 113.651L208.842 113.637L208.858 113.623C209.477 113.065 210.213 112.459 210.997 112.191C211.454 112.036 212.082 111.94 212.755 112.177C213.421 112.411 213.839 112.868 214.085 113.237L214.102 113.262L214.117 113.287C214.67 114.171 214.469 115.079 214.316 115.527C214.146 116.022 213.863 116.482 213.579 116.872C213.002 117.669 212.125 118.585 211.038 119.573C204.646 125.47 196.565 126.623 188.881 122.746L188.88 122.745C182.18 119.359 178.757 112.998 178.689 104.825L178.689 104.821C178.619 94.4563 184.68 85.9689 194.214 83.356ZM204.688 91.0742C204.689 91.0746 204.688 91.071 204.682 91.0625C204.685 91.0696 204.688 91.0739 204.688 91.0742Z" fill="#7B8BD9" stroke="#121212" stroke-width="4"/>
<path d="M253.754 113.608C247.397 125.973 232.136 128.878 222.453 119.195C218.617 115.359 216.846 110.897 216.843 105.074C216.777 99.3371 217.751 95.6931 220.541 91.4383L253.12 96.6682C250.322 88.274 240.592 82.9322 232.262 85.2851M253.754 113.608L251.975 112.694L253.753 113.609C253.754 113.609 253.754 113.609 253.754 113.608ZM253.754 113.608C254.997 111.194 255.707 108.046 255.926 104.966C256.145 101.881 255.887 98.6455 255.017 96.0358C251.899 86.6803 241.136 80.71 231.733 83.3562M231.733 83.3562C231.738 83.3548 231.743 83.3535 231.748 83.3521L232.262 85.2851M231.733 83.3562C231.728 83.3576 231.723 83.359 231.718 83.3604L232.262 85.2851M231.733 83.3562C227.193 84.5663 223.098 87.5328 220.541 91.438L232.262 85.2851M231.13 115.541L231.13 115.541L231.139 115.551C233.364 118.017 236.068 118.833 238.409 118.44C240.744 118.048 242.981 116.41 244.204 113.413C245.621 109.807 245.892 104.777 245.144 100.151C244.773 97.857 244.163 95.7436 243.376 94.0287C242.579 92.2924 241.67 91.1145 240.786 90.4885C240.092 90.0162 238.4 89.4054 237.111 89.2423C233.994 88.8878 231.584 90.0802 229.927 92.5272C228.196 95.0843 227.216 99.1504 227.58 104.481L227.58 104.482C227.799 107.715 228.121 109.832 228.66 111.462C229.177 113.027 229.92 114.218 231.13 115.541Z" fill="#7B8BD9" stroke="#121212" stroke-width="4"/>
<path d="M70.1357 101.82V91.4826H69.592C69.0519 91.4826 68.5467 91.471 68.1039 91.4253C67.6809 91.3816 67.1541 91.2931 66.6541 91.0485C66.0763 90.7657 65.5983 90.3054 65.3191 89.6688C65.0788 89.1209 65.0483 88.5775 65.0483 88.2107C65.0483 87.8495 65.0766 87.2801 65.3441 86.7084C65.6564 86.0408 66.1803 85.5985 66.764 85.3403C67.2694 85.1168 67.8088 85.0351 68.2619 84.9938C68.7377 84.9504 69.2932 84.9389 69.91 84.9389C70.5766 84.9389 71.3918 84.8468 72.1557 84.6871C72.9542 84.5201 73.5166 84.3166 73.7625 84.1782L73.8258 84.1426L73.8915 84.1117C74.5016 83.8246 75.1635 83.5655 75.7515 83.413C76.033 83.3401 76.3964 83.2649 76.7725 83.2598C76.9605 83.2572 77.2392 83.2701 77.5477 83.3607C77.8535 83.4505 78.3216 83.6578 78.6857 84.1354C78.9024 84.4185 78.9909 84.6848 79.0116 84.7473C79.0126 84.7501 79.0134 84.7524 79.014 84.7544C79.061 84.8933 79.0882 85.0176 79.1036 85.0962C79.1359 85.2595 79.1569 85.4319 79.1722 85.5824C79.2039 85.8942 79.2287 86.2992 79.2491 86.7649C79.2903 87.7055 79.3184 89.0135 79.3344 90.583C79.3664 93.7276 79.3503 97.9885 79.2866 102.608C79.2866 102.609 79.2866 102.609 79.2866 102.61L79.1188 117.371H79.7033C80.2587 117.371 80.7737 117.383 81.223 117.428C81.6516 117.471 82.1809 117.558 82.682 117.798C83.2616 118.076 83.749 118.533 84.0349 119.176C84.2806 119.729 84.3106 120.277 84.3106 120.643C84.3106 120.978 84.2989 121.701 83.8694 122.386C83.3874 123.156 82.6506 123.483 82.0796 123.638C81.5345 123.786 80.8955 123.844 80.2304 123.875C79.5382 123.907 78.6699 123.915 77.6047 123.915C76.38 123.915 75.3367 123.896 74.4846 123.81C73.6617 123.728 72.7853 123.565 72.0319 123.129C71.1845 122.638 70.6731 121.913 70.4086 121.087C70.2819 121.169 70.1482 121.257 70.007 121.35C66.0014 124.085 61.7317 125.359 57.8735 124.987C53.953 124.608 50.5772 122.526 48.6235 118.852C47.8415 117.399 47.3936 116.244 47.1423 113.883C46.9079 111.681 46.8286 108.298 46.7339 102.36L46.7338 102.358L46.5723 91.4826H45.9991C45.4577 91.4826 44.9576 91.4709 44.5238 91.4283C44.1197 91.3886 43.5953 91.308 43.1027 91.0729C42.5189 90.7942 41.9723 90.2902 41.73 89.5178C41.5369 88.9025 41.6111 88.3289 41.6775 87.9838C41.7713 87.4325 42.0137 86.8826 42.4647 86.4161C42.8944 85.9717 43.4089 85.712 43.8669 85.5449C44.7307 85.2297 45.8969 85.0729 47.2781 84.9473C48.1998 84.8607 49.0951 84.7027 49.7851 84.5251C50.1324 84.4356 50.3933 84.35 50.5642 84.2807C50.5882 84.271 50.6086 84.2623 50.6257 84.2548C50.8786 84.0079 51.1729 83.7417 51.487 83.5266C51.8041 83.3095 52.4946 82.8921 53.3901 82.9916C54.447 83.1091 55.0522 83.834 55.3417 84.3595C55.6162 84.8577 55.7656 85.4352 55.8655 85.9621C56.2568 88.0251 56.3628 92.2 56.4568 99.4407L56.4568 99.4425C56.5532 107.446 56.7026 111.615 57.2013 113.992C57.4394 115.128 57.7189 115.639 57.9549 115.923C58.1864 116.202 58.5244 116.447 59.2756 116.78L59.2845 116.784L59.2933 116.788C62.0342 118.039 65.2762 117.545 68.5217 114.693C68.5231 114.692 68.5244 114.691 68.5257 114.69L70.1357 113.258V101.82ZM50.6991 84.2192C50.699 84.2191 50.6957 84.2208 50.6898 84.2244C50.6962 84.221 50.6992 84.2192 50.6991 84.2192Z" fill="#7B8BD9" stroke="#121212" stroke-width="4"/>
<path d="M129.276 101.374V91.4824H128.733C128.193 91.4824 127.687 91.4708 127.244 91.4251C126.821 91.3814 126.295 91.2929 125.795 91.0483C125.217 90.7655 124.739 90.3052 124.46 89.6686C124.219 89.1208 124.189 88.5773 124.189 88.2105C124.189 87.8526 124.216 87.2677 124.5 86.6824C124.832 85.999 125.381 85.5685 125.966 85.324C126.474 85.1114 127.022 85.0328 127.495 84.9926C127.981 84.9511 128.554 84.9391 129.201 84.9387C129.909 84.9092 130.709 84.812 131.421 84.6682C132.199 84.5111 132.671 84.3379 132.828 84.2483C133.39 83.9272 133.998 83.6611 134.549 83.4882C134.822 83.4025 135.127 83.3253 135.433 83.2858C135.651 83.2577 136.184 83.2003 136.746 83.4118C137.273 83.608 137.57 83.9639 137.692 84.1291C137.836 84.3247 137.92 84.5086 137.964 84.6167C138.055 84.8368 138.107 85.0521 138.139 85.1983C138.205 85.5107 138.255 85.8932 138.296 86.3002C138.38 87.1328 138.449 88.3086 138.505 89.7797C138.618 92.7337 138.682 97.0073 138.682 102.392V117.371H138.78C139.216 117.371 139.656 117.387 140.065 117.449C140.466 117.509 140.967 117.629 141.442 117.922C142.642 118.66 142.815 119.882 142.815 120.643V120.652C142.815 120.977 142.816 121.856 142.191 122.619C141.573 123.373 140.697 123.598 140.127 123.7C138.973 123.907 136.985 123.915 133.82 123.915C131.927 123.915 130.381 123.875 129.187 123.778C128.1 123.69 126.98 123.537 126.187 123.132C125.781 122.925 125.017 122.426 124.8 121.421C124.583 120.414 125.075 119.646 125.356 119.295C125.903 118.614 126.829 118.041 127.69 117.563C128.105 117.327 128.248 117.179 128.362 116.993C128.512 116.746 128.713 116.249 128.876 115.132C129.208 112.854 129.276 108.879 129.276 101.374Z" fill="#7B8BD9" stroke="#121212" stroke-width="4"/>
</svg>
