<svg width="474" height="538" viewBox="0 0 474 538" fill="none" xmlns="http://www.w3.org/2000/svg">
<path d="M7.74881 8.24269C20.3386 20.3355 32.7627 26.9617 66.0594 39.7172C94.0551 50.4848 111.283 58.6019 121.72 66.222C126.524 69.7007 134.144 80.137 149.55 104.323C189.638 167.437 206.535 185.991 223.763 185.825C229.561 185.659 232.046 184.168 237.512 177.542L240.826 173.567L235.856 176.88C228.567 181.849 225.917 182.512 219.622 180.69C207.032 177.211 188.644 153.688 153.691 95.7086C146.071 82.9532 136.463 69.2038 132.321 65.0624C122.051 54.6261 103.663 45.5151 68.5443 33.4223C36.4071 22.3234 21.1669 15.3659 9.57101 6.58615C-2.52181 -2.69054 -3.18443 -2.19357 7.74881 8.24269Z" fill="#7B8BD9"/>
<path d="M1.45401 38.2257C1.45401 43.5266 29.1184 59.7608 44.69 63.7366C46.8435 64.3992 52.6415 67.381 57.6111 70.6941C67.3848 77.1546 69.7039 77.1546 65.5626 70.8597C60.9242 63.9022 51.9788 58.2699 34.7507 51.6437C25.6397 48.165 14.7064 43.5266 10.3994 41.0418C1.78532 36.2378 1.45401 36.0721 1.45401 38.2257Z" fill="#7B8BD9"/>
<path d="M463.963 45.3496C458.994 53.301 444.416 67.0504 433.317 74.0079C424.372 79.6402 414.101 83.9472 377.16 98.0279C357.613 105.317 351.649 110.949 337.568 134.803C331.108 145.737 323.156 157.664 319.843 161.308C313.549 168.266 303.609 174.229 298.308 174.229C294.829 174.229 286.381 161.805 278.098 144.246C272.466 132.319 272.135 128.508 275.448 120.391C278.43 113.268 277.436 112.771 273.957 119.563C268.822 129.337 270.644 139.442 280.749 158.989C288.7 173.898 290.191 178.536 291.019 187.482C293.173 217.631 278.761 242.976 246.293 266.002C234.531 274.285 230.721 274.782 233.371 267.824C234.531 264.677 234.365 263.683 232.709 263.683C229.064 263.683 226.248 268.487 226.414 274.285C226.58 279.255 225.42 280.746 212.665 290.685C190.467 308.244 178.705 325.307 168.6 354.959C163.962 368.211 163.134 373.015 163.134 387.096C162.968 401.839 163.465 404.821 167.441 413.27C173.239 425.528 187.485 439.774 199.743 445.407C213.327 451.702 229.893 452.53 239.998 447.229C244.139 445.075 249.109 440.934 251.097 437.787C255.901 430.498 256.232 425.528 251.428 431.657C245.133 439.774 235.856 443.088 222.769 442.259C210.511 441.431 199.412 437.455 206.038 436.296C214.652 434.805 221.113 431.823 227.077 426.356C235.525 418.736 238.341 413.104 238.341 403.662C238.341 385.771 226.911 376.826 213.493 383.783C206.535 387.427 207.364 388.256 214.652 385.274C220.119 382.955 221.279 382.955 226.248 385.274C232.377 388.09 235.028 393.391 235.028 402.171C235.028 419.896 212.83 434.474 193.78 429.338C156.839 419.399 163.796 348.83 206.038 307.582C212.499 301.121 221.113 293.667 225.42 290.685C232.046 285.881 233.206 285.55 236.022 287.703C238.838 289.691 239.004 290.519 237.181 295.158C235.194 300.293 235.359 300.293 238.672 298.139C244.802 293.998 245.63 291.182 242.814 285.55L240.329 280.249L247.121 275.279C250.931 272.463 255.238 270.475 256.563 270.641C257.888 270.972 259.711 274.285 260.705 278.261C262.03 283.727 262.858 284.887 264.515 283.23C267.165 280.58 267.165 271.138 264.515 266.996C262.692 264.18 263.355 262.689 271.306 254.738C280.417 245.461 283.068 244.633 283.068 250.762C283.068 255.732 288.038 265.174 291.848 267.162C294.829 268.818 294.995 268.653 294.001 265.174C293.339 263.02 291.848 255.235 290.522 247.946C288.203 235.025 288.203 234.362 292.179 223.098L296.155 211.502L306.922 211.999C313.549 212.496 321.169 211.667 326.967 209.845C333.096 208.189 337.072 207.692 338.231 208.686C339.391 209.679 344.029 211.502 348.667 212.827C359.766 216.14 366.061 219.453 373.35 225.914C380.142 231.877 382.13 231.215 378.485 224.257C373.019 213.821 359.601 205.704 347.508 205.704H340.55L350.324 196.758C366.392 182.181 378.817 157.829 383.289 131.49C387.762 106.145 385.774 104.82 379.148 128.674C373.681 148.718 360.926 173.898 350.324 185.328C337.403 199.243 325.476 205.207 304.437 208.023L296.817 209.183L296.983 192.948L297.149 176.714L303.112 175.72C311.395 174.395 323.322 167.106 329.12 159.817C331.771 156.339 338.894 146.068 344.692 136.791C350.655 127.68 358.275 117.907 361.588 115.09C365.067 112.274 376.166 106.808 386.271 102.998C419.236 90.4078 434.311 82.4563 446.57 70.8605C457.006 60.9212 470.093 42.6991 468.27 40.7112C467.773 40.2143 465.786 42.3678 463.963 45.3496Z" fill="#7B8BD9"/>
<path d="M186.988 76.4923C176.22 87.9226 179.533 111.611 193.448 123.373C206.038 133.975 220.119 132.649 240.826 118.9C259.379 106.642 261.201 105.813 272.3 104.654L282.24 103.66L274.951 101.506C265.177 98.6901 257.557 100.844 239.998 111.446C224.426 120.888 213.99 123.87 206.038 121.219C199.743 119.066 191.129 110.617 188.644 103.825C185.663 95.874 186.325 83.7812 190.135 77.3206C194.277 70.1975 193.117 69.8661 186.988 76.4923Z" fill="#7B8BD9"/>
<path d="M461.976 84.1125C457.006 88.0883 447.895 94.3832 441.766 98.1932C425.697 107.636 426.857 111.28 443.753 104.819C454.355 100.844 462.473 94.7145 468.767 85.9347C477.381 74.1732 474.897 73.5106 461.976 84.1125Z" fill="#7B8BD9"/>
<path d="M114.928 95.8744C108.467 116.25 113.603 150.872 126.192 172.573C134.475 186.819 154.354 205.869 167.772 212.33C186.988 221.772 205.541 221.11 217.8 210.342C225.586 203.385 224.923 201.397 216.474 206.863C210.345 211.005 208.026 211.502 196.265 211.502C185.663 211.502 181.19 210.673 175.392 207.857C157.998 199.243 136.463 177.377 128.18 159.983C120.063 142.755 117.081 127.515 117.578 106.145C117.91 95.2118 118.075 86.4321 118.075 86.4321C117.91 86.4321 116.584 90.7391 114.928 95.8744Z" fill="#7B8BD9"/>
<path d="M12.3874 89.5792C10.2338 90.4074 13.547 91.7327 23.9832 94.3832C32.763 96.5367 46.3467 101.672 57.4456 107.139C67.8819 112.274 76.6616 116.084 77.1585 115.587C80.6373 112.274 56.6173 96.0397 41.5427 91.4014C30.9407 88.0883 18.1853 87.26 12.3874 89.5792Z" fill="#7B8BD9"/>
<path d="M458.662 114.095C452.202 117.408 441.765 120.721 432.489 122.378C423.875 124.035 417.414 126.022 417.745 127.016C418.739 129.832 439.943 129.998 448.723 127.016C457.006 124.2 471.252 113.101 470.093 110.451C469.761 109.457 464.626 111.279 458.662 114.095Z" fill="#7B8BD9"/>
<path d="M25.4741 130.992L22.161 132.317L25.4741 133.311C27.2963 133.808 31.769 134.802 35.4134 135.465C39.0578 136.128 52.8072 139.772 65.8939 143.748C78.9807 147.723 90.4109 151.037 91.2392 151.037C95.5462 151.037 91.0735 147.226 79.809 141.429C61.0899 131.821 35.9104 127.017 25.4741 130.992Z" fill="#7B8BD9"/>
<path d="M226.414 134.968C214.652 140.435 212.996 143.251 220.782 144.079C229.396 145.073 239.998 138.116 239.998 131.655C239.998 128.839 239.335 129.005 226.414 134.968Z" fill="#7B8BD9"/>
<path d="M240.826 146.896C238.341 152.859 236.684 158.16 237.181 158.823C240.991 162.467 250.599 149.38 249.108 142.754C247.286 135.134 245.464 135.962 240.826 146.896Z" fill="#7B8BD9"/>
<path d="M448.723 143.583C441.931 145.737 430.667 148.553 423.709 150.209C416.752 151.7 409.628 154.019 407.972 155.345C405.156 157.664 406.315 157.829 420.562 157.167C438.949 156.338 452.368 151.866 459.491 144.411C464.957 138.613 464.957 138.613 448.723 143.583Z" fill="#7B8BD9"/>
<path d="M66.0594 169.093C57.611 170.75 48.5 174.394 43.696 178.204L40.3829 180.689H43.696C45.5182 180.689 50.3222 180.027 54.4636 179.033C58.6049 178.039 72.6856 176.713 85.938 176.051L109.958 174.891L103.497 172.075C95.8773 168.596 76.6614 167.271 66.0594 169.093Z" fill="#7B8BD9"/>
<path d="M386.271 174.229C379.314 177.045 382.295 178.702 398.861 180.69C407.806 181.684 417.911 183.175 421.39 183.672C429.342 184.997 428.182 182.181 418.574 177.377C411.119 173.567 392.069 171.744 386.271 174.229Z" fill="#7B8BD9"/>
<path d="M367.552 194.273C361.754 196.592 365.233 198.083 381.798 200.402C389.253 201.396 398.364 203.384 402.174 204.709C408.303 206.697 409.132 206.697 408.303 204.544C407.806 203.218 407.309 201.727 407.309 201.396C407.309 200.899 403.334 198.746 398.695 196.592C389.253 192.119 375.338 191.125 367.552 194.273Z" fill="#7B8BD9"/>
<path d="M95.3804 201.231C86.2694 205.869 74.3422 214.815 70.5321 220.116C67.5504 223.926 67.5504 223.926 72.1887 222.104C74.6735 221.11 83.6189 216.803 91.736 212.33C100.019 208.023 109.792 203.55 113.768 202.391C117.578 201.397 120.394 199.906 119.897 199.078C117.91 195.93 103.332 197.255 95.3804 201.231Z" fill="#7B8BD9"/>
<path d="M124.37 218.458C116.419 221.274 101.179 234.361 95.7121 243.141C93.7242 246.288 92.399 249.104 92.7303 249.436C93.8899 250.43 138.617 218.127 137.788 216.802C136.795 215.145 132.488 215.642 124.37 218.458Z" fill="#7B8BD9"/>
<path d="M211.008 229.392C194.608 255.565 189.307 262.854 182.515 267.658C176.055 272.131 175.558 272.794 178.54 273.291C184.503 274.284 196.265 266.002 203.388 256.062C210.842 245.626 217.303 230.22 216.475 224.919C215.978 222.103 214.984 222.931 211.008 229.392Z" fill="#7B8BD9"/>
<path d="M322.825 223.594C322.825 224.257 328.457 230.386 335.415 237.178C346.845 248.443 348.005 249.105 347.011 244.633C345.354 237.841 338.728 228.564 332.93 225.085C327.96 222.104 322.825 221.275 322.825 223.594Z" fill="#7B8BD9"/>
<path d="M159.655 227.57C146.734 232.209 117.413 258.051 117.413 264.843C117.413 266.665 118.075 266.996 119.566 265.837C143.089 247.118 165.453 228.398 165.453 227.073C165.453 226.245 165.287 225.582 165.121 225.748C164.79 225.748 162.471 226.576 159.655 227.57Z" fill="#7B8BD9"/>
<path d="M179.533 239.829C173.238 245.793 162.968 254.572 156.507 259.211C143.421 268.984 145.077 271.8 159.489 264.677C170.588 259.211 182.846 248.443 188.976 239.001C197.59 225.251 194.939 225.583 179.533 239.829Z" fill="#7B8BD9"/>
<path d="M297.977 235.024C297.977 243.638 312.555 258.713 321.003 258.713C324.15 258.713 322.825 256.559 312.72 245.461C300.296 231.877 297.977 230.22 297.977 235.024Z" fill="#7B8BD9"/>
<path d="M177.711 292.506C158.164 312.55 142.261 333.588 136.463 347.338C121.223 383.285 126.193 418.073 153.691 466.61C164.293 485.329 171.582 502.722 173.736 514.153L175.227 522.932L174.73 511.336C173.901 496.924 171.085 488.476 158.495 463.462C128.843 404.489 128.512 368.873 157.004 326.797C162.637 318.514 187.319 287.536 198.253 274.781C199.578 273.29 200.075 271.965 199.247 271.965C198.418 271.965 188.645 281.241 177.711 292.506Z" fill="#7B8BD9"/>
<path d="M153.194 348.001C143.752 366.389 140.936 394.55 146.237 416.748C151.041 436.627 157.17 445.903 185.331 474.893C199.578 489.471 213.493 504.711 216.143 508.852C222.272 517.798 226.745 528.897 226.745 534.694C226.745 537.014 227.408 538.505 228.402 537.842C230.39 536.682 228.899 525.915 225.586 516.307C221.61 505.042 213.327 493.943 191.461 470.752C166.778 444.909 161.974 438.449 155.845 423.209C151.703 412.607 151.372 410.287 151.538 386.267C151.538 363.904 152.035 359.266 155.182 350.817C157.17 345.351 158.495 340.712 158.164 340.215C157.667 339.884 155.513 343.363 153.194 348.001Z" fill="#7B8BD9"/>
<path d="M310.07 409.458C300.959 414.925 295.989 429.171 299.633 440.105C301.621 446.4 308.082 451.7 311.56 450.375C313.051 449.713 312.72 449.381 310.898 449.381C306.425 449.216 301.29 441.099 301.29 434.472C301.29 428.343 306.26 418.569 311.064 414.925C316.364 411.115 325.476 410.618 333.096 414.097C350.821 422.048 355.459 436.129 346.182 454.848C329.948 487.979 285.884 497.256 235.028 478.04C218.462 471.91 218.628 471.248 237.016 471.413C259.379 471.579 266.668 467.935 270.644 454.185C271.803 450.375 271.306 450.541 266.005 456.008C256.397 465.781 242.814 466.609 212.664 459.155C201.731 456.504 192.454 454.185 192.123 454.185C191.626 454.185 193.117 456.173 195.436 458.492C202.725 466.444 219.622 477.377 237.181 485.494C256.563 494.605 263.024 500.734 267.496 514.484C269.815 521.11 270.478 522.104 271.803 519.785C273.791 516.306 272.3 506.864 268.821 500.237L266.337 495.599H283.565C302.781 495.599 313.383 493.114 328.292 485.163C355.459 470.916 366.724 432.816 349.164 416.25C338.397 405.98 320.672 402.998 310.07 409.458Z" fill="#7B8BD9"/>
</svg>
